<mxfile host="65bd71144e">
    <diagram id="WCPUqrGfc1Wk92YMNqbC" name="Page-1">
        <mxGraphModel dx="520" dy="805" grid="1" gridSize="10" guides="1" tooltips="1" connect="1" arrows="1" fold="1" page="1" pageScale="1" pageWidth="827" pageHeight="1169" math="0" shadow="0">
            <root>
                <mxCell id="0"/>
                <mxCell id="1" parent="0"/>
                <mxCell id="3" value="" style="rounded=0;whiteSpace=wrap;html=1;" vertex="1" parent="1">
                    <mxGeometry x="120" y="180" width="200" height="180" as="geometry"/>
                </mxCell>
                <mxCell id="5" value="リバーシで学ぶ" style="rounded=0;whiteSpace=wrap;html=1;" vertex="1" parent="1">
                    <mxGeometry x="120" y="180" width="200" height="40" as="geometry"/>
                </mxCell>
                <mxCell id="6" value="対戦する" style="rounded=1;whiteSpace=wrap;html=1;" vertex="1" parent="1">
                    <mxGeometry x="185" y="230" width="70" height="30" as="geometry"/>
                </mxCell>
                <mxCell id="8" value="過去の対戦結果" style="whiteSpace=wrap;html=1;aspect=fixed;" vertex="1" parent="1">
                    <mxGeometry x="175" y="270" width="80" height="80" as="geometry"/>
                </mxCell>
                <mxCell id="9" value="" style="rounded=0;whiteSpace=wrap;html=1;" vertex="1" parent="1">
                    <mxGeometry x="390" y="180" width="200" height="240" as="geometry"/>
                </mxCell>
                <mxCell id="10" value="リバーシで学ぶ" style="rounded=0;whiteSpace=wrap;html=1;" vertex="1" parent="1">
                    <mxGeometry x="390" y="180" width="200" height="40" as="geometry"/>
                </mxCell>
                <mxCell id="11" value="白の晩はスキップです" style="rounded=1;whiteSpace=wrap;html=1;" vertex="1" parent="1">
                    <mxGeometry x="455" y="230" width="70" height="30" as="geometry"/>
                </mxCell>
                <mxCell id="12" value="盤面" style="whiteSpace=wrap;html=1;aspect=fixed;" vertex="1" parent="1">
                    <mxGeometry x="445" y="270" width="80" height="80" as="geometry"/>
                </mxCell>
                <mxCell id="14" value="次は黒の番です" style="rounded=0;whiteSpace=wrap;html=1;" vertex="1" parent="1">
                    <mxGeometry x="440" y="370" width="120" height="40" as="geometry"/>
                </mxCell>
            </root>
        </mxGraphModel>
    </diagram>
</mxfile>